<?xml version="1.0" encoding="UTF-8"?>
<svg id="Layer_1" data-name="Layer 1" xmlns="http://www.w3.org/2000/svg" xmlns:xlink="http://www.w3.org/1999/xlink" viewBox="0 0 792 612">
  <defs>
    <style>
      .cls-1 {
        fill: none;
        stroke: #f2df74;
        stroke-width: 8.5px;
      }

      .cls-1, .cls-2 {
        stroke-miterlimit: 10;
      }

      .cls-3 {
        fill: url(#linear-gradient);
      }

      .cls-3, .cls-4, .cls-5, .cls-6, .cls-7 {
        stroke-width: 0px;
      }

      .cls-2 {
        stroke: #772432;
      }

      .cls-2, .cls-5 {
        fill: #881a06;
      }

      .cls-8 {
        stroke: #fff;
        stroke-width: .5px;
      }

      .cls-8, .cls-6 {
        fill: #fff;
      }

      .cls-4 {
        fill: #772432;
      }

      .cls-7 {
        fill: #005c79;
      }
    </style>
    <linearGradient id="linear-gradient" x1="110.44" y1="287.26" x2="449.13" y2="287.26" gradientUnits="userSpaceOnUse">
      <stop offset="0" stop-color="#fff"/>
      <stop offset="1" stop-color="#005c79"/>
    </linearGradient>
  </defs>
  <path class="cls-2" d="m616.29,239.22h-43.77c-21.03-76.14-90.75-132.07-173.59-132.07s-152.55,55.93-173.57,132.07h-43.31v97.05h43.58c21.35,75.65,90.83,131.11,173.3,131.11s151.97-55.46,173.32-131.11h44.04v-97.05Z"/>
  <path class="cls-3" d="m568.28,287.26c0,93.53-75.82,169.34-169.35,169.34s-169.33-75.81-169.33-169.34,75.82-169.34,169.33-169.34,169.35,75.81,169.35,169.34Z"/>
  <path class="cls-8" d="m442.85,119.69c-91.77-24.24-186.16,30.69-210.41,122.47-24.24,91.78,30.7,186.17,122.47,210.41,91.78,24.25,186.17-30.7,210.4-122.47,24.24-91.78-30.7-186.17-122.47-210.4Zm-109.14,316.93c-7.07-4.83-13.43-10.84-18.97-17.67-10.38-12.78-17.81-28.32-22.71-44.83.68.28,1.35.58,2.02.88,13.06,5.48,26.37,10.23,39.83,14.45.04,1.09.05,2.18.1,3.26.35,7.87,1.09,15.66,2.48,23.15,1.39,7.49,3.41,14.78,6.66,21.04,1.32,2.52,2.86,4.84,4.65,6.84-1.5-.48-2.98-.99-4.45-1.52-3.31-1.63-6.52-3.49-9.6-5.6Zm-97.63-127.84c-2.35-17.47-1.82-35.3,1.45-52.61,2.44,3.23,5.25,5.86,8.16,8.29,5.91,4.87,12.27,8.87,18.73,12.6,5.54,3.14,11.18,6.02,16.89,8.74-1.09,7.8-1.79,15.65-2.1,23.5-2.51,0-5.02.04-7.54.15-6.6.34-13.23.99-19.87,2.65-3.31.86-6.64,1.96-9.87,3.8-1.43.82-2.85,1.83-4.14,3.1-.66-3.4-1.23-6.79-1.68-10.21Zm37.89-129.55c.49,1.64,1.2,3.12,2,4.47,1.91,3.2,4.28,5.8,6.75,8.19,4.97,4.74,10.45,8.58,16.05,12.14,2.25,1.41,4.54,2.75,6.84,4.05-3.51,6.89-6.68,13.96-9.51,21.18-6.28-.45-12.56-.73-18.89-.72-7.46.04-14.96.38-22.51,1.7-3.74.68-7.51,1.58-11.24,3.2,5.71-17.02,14.16-33.1,25.03-47.39,1.76-2.32,3.59-4.59,5.47-6.82Zm10.3-11.16c.15-.1.3-.19.46-.28,2.43-1.42,5.32-2.42,8.28-3.2,5.96-1.53,12.29-2.21,18.62-2.56,8.48-.44,17.02-.31,25.57.19-10.9,11.84-20.4,25.24-28.3,39.6-.07.15-.14.29-.23.44-2.23-1.31-4.44-2.65-6.61-4.04-5.33-3.43-10.5-7.15-14.93-11.43-2.19-2.15-4.2-4.44-5.62-6.87-1.44-2.43-2.12-4.94-1.55-6.91.07-.29.18-.58.31-.87,1.32-1.38,2.64-2.75,3.99-4.09Zm69.1-41.21c5.21-1.5,10.5-2.75,15.86-3.73-.13.3-.24.61-.32.93-.3,1.16-.29,2.37-.1,3.42.2,1.05.56,1.97.98,2.8.67,1.29,1.47,2.39,2.32,3.39-10.19,5.9-19.72,13.32-28.38,21.77-.59.58-1.16,1.2-1.75,1.79-10.12-.92-20.32-1.41-30.59-.97-5.32.26-10.66.73-16.01,1.77,6.75-5.58,13.92-10.63,21.48-15.08,11.47-6.76,23.75-12.19,36.51-16.1Zm135.7,241.22c1.54.9,3.08,1.81,4.59,2.78,5.44,3.45,10.73,7.2,15.4,11.67,2.32,2.25,4.5,4.69,6.15,7.49,1.64,2.74,2.77,6.1,1.92,9.34-.86,3.23-3.5,5.6-6.27,7.16-2.83,1.62-5.93,2.66-9.05,3.48-6.27,1.58-12.73,2.22-19.16,2.55-8.28.37-16.55.11-24.81-.49,11.9-12.58,22.06-27.07,30.49-42.58.24-.46.48-.93.73-1.4Zm-1.84,1.05c-8.62,15.71-19.17,30.24-31.36,42.77-3.93-.32-7.88-.7-11.78-1.15-12.17-1.44-24.24-3.48-36.21-5.93,2.76-4.91,5.4-9.93,7.92-15.01,7.05-14.24,13.14-29.13,18.6-44.28.18-.49.35-.98.52-1.47,8.19,2.87,16.31,5.93,24.33,9.3,9.83,4.22,19.55,8.79,28.83,14.15-.28.53-.55,1.08-.84,1.62Zm-129.65,77.43c-5.36-1.47-9.49-6.21-12.33-12.12-2.87-5.94-4.64-12.95-5.81-20.2-1.2-7.64-1.77-15.58-1.91-23.64,10.14,3.09,20.36,5.91,30.63,8.48,12.11,2.98,24.3,5.61,36.57,7.83-.56.93-1.12,1.86-1.7,2.78-4.1,6.56-8.47,12.83-13.22,18.51-4.74,5.66-9.88,10.8-15.42,14.41-2.76,1.8-5.62,3.19-8.49,3.91-2.85.75-5.73.78-8.33.04Zm10.95-51.3c-10.43-2.94-20.79-6.16-31.04-9.67.02-5.71.23-11.48.56-17.23.92-15.67,2.97-31.46,5.69-47.19.03-.12.05-.24.07-.37,14.12,2.37,28.16,5.32,42.07,8.75,16.22,4.05,32.31,8.7,48.11,14.19-5.66,15.64-12.09,30.89-19.47,45.48-2.62,5.22-5.41,10.32-8.33,15.27-12.66-2.65-25.21-5.76-37.65-9.23Zm-83.8-85.91c.3-7.04.95-14.07,1.89-21.08,5.95,2.71,11.95,5.25,17.99,7.69,12.12,4.8,24.4,9.13,36.78,13.1-.43,2.25-.84,4.5-1.24,6.76-9.69-1.84-19.46-3.38-29.28-4.55-8.67-.97-17.38-1.7-26.14-1.91Zm-44.49-65.12c.08-.31.17-.61.25-.92.9-1.69,3.01-3.26,5.51-4.36,2.98-1.35,6.39-2.21,9.83-2.85,6.94-1.27,14.16-1.66,21.37-1.75,5.6-.04,11.22.09,16.84.38-2.63,7.19-4.94,14.49-6.9,21.89-1.96,7.47-3.57,15.04-4.84,22.65-5.04-2.53-9.99-5.19-14.85-8-6.23-3.64-12.31-7.55-17.72-12.08-2.68-2.25-5.21-4.69-7.14-7.34-1.63-2.18-2.69-4.58-2.64-6.49.1-.38.19-.75.29-1.13Zm52.42,13.85c2.04-7.78,4.49-15.46,7.27-23,6.91.47,13.82,1.13,20.7,1.95,12.7,1.48,25.36,3.41,37.96,5.68-3.29,10.04-6.28,20.18-9,30.39-2.69,10.29-5.11,20.68-7.22,31.1-12.09-4.26-24.06-8.83-35.84-13.82-6.38-2.69-12.71-5.52-18.94-8.52,1.3-8,2.99-15.95,5.07-23.79Zm82.32-126.35c-1-1.08-1.9-2.26-2.53-3.51-.64-1.25-.91-2.55-.62-3.59.19-.77.73-1.53,1.49-2.19,10.92-1.72,22.09-2.36,33.39-1.82-5.48.98-10.9,2.46-16.21,4.39-5.22,1.91-10.33,4.25-15.3,6.93-.07-.07-.15-.14-.21-.21Zm126.03,23.95c.27.99.37,2.05.1,3.1-.46,1.7-1.73,2.98-3.07,3.85-.82.54-1.69.96-2.57,1.32-2.66-4.37-5.58-8.55-8.79-12.47-3.94-4.84-8.3-9.27-13.02-13.21,9.77,4.94,18.92,10.79,27.36,17.41Zm16.8,102.16c.34-17.53-1.32-35.04-5.39-51.75,7.5,3.55,14.85,7.42,21.9,11.83,5.46,3.47,10.77,7.22,15.47,11.7,2.33,2.25,4.51,4.69,6.19,7.49,1.65,2.75,2.78,6.1,1.93,9.34-.86,3.23-3.5,5.59-6.29,7.16-2.84,1.62-5.95,2.65-9.07,3.45-6.3,1.58-12.78,2.22-19.23,2.54-1.86.08-3.71.12-5.55.14.01-.64.05-1.27.05-1.91Zm-1.13-.24c-.02.72-.05,1.44-.07,2.15-10.72.06-21.41-.77-32.04-1.97-8.65-1.04-17.25-2.38-25.82-3.94.11-.61.23-1.21.33-1.82,2.73-15.86,4.79-31.82,5.7-47.7.3-5.55.49-11.12.51-16.65,11.63,3.78,23.14,7.97,34.44,12.7,3.64,1.56,7.28,3.18,10.88,4.86,4.37,16.81,6.32,34.54,6.07,52.35Zm-162.64,16.7c2.72-10.36,5.75-20.62,9.06-30.77,14.59,2.73,29.11,5.93,43.52,9.51,16.37,4.11,32.64,8.7,48.7,13.9-2.15,10.78-4.64,21.51-7.42,32.14-2.86,10.68-6.01,21.31-9.49,31.8-16.54-3.4-32.94-7.46-49.2-11.95-14.31-3.99-28.51-8.39-42.54-13.21,2.15-10.54,4.6-21.02,7.36-31.42Zm53.91-23.87c-14.42-4-28.96-7.64-43.6-10.81.64-1.92,1.32-3.82,1.99-5.73,13.87,4.59,27.92,8.58,42.07,12.12,16.19,3.99,32.53,7.37,48.99,9.93-.56,3.16-1.15,6.32-1.77,9.48-15.71-5.53-31.63-10.51-47.67-15Zm-13.47-80.84c10.59,2.01,21.13,4.31,31.59,6.89,12.64,3.16,25.19,6.67,37.6,10.66.09,5.64,0,11.35-.3,17.08-.8,16.43-2.75,32.97-5.58,49.45-16.52-3.05-32.89-6.98-49.07-11.48-13.74-3.86-27.34-8.21-40.73-13.09.08-.22.16-.45.24-.67,5.41-15.01,11.42-29.76,18.36-43.83,2.52-5.08,5.14-10.11,7.89-15.01Zm33.31-46.61c1.47.27,2.96.55,4.43.85-2.53.86-5.01,2.11-7.39,3.65-5.92,3.85-11.28,9.19-16.19,15-1.78,2.12-3.49,4.33-5.16,6.59-2.03-.88-4.05-1.78-6.04-2.73-5.42-2.57-10.72-5.44-15.64-8.86-1.09-.77-2.17-1.57-3.2-2.41,4.13-2.28,8.36-4.28,12.7-5.97,8.19-3.21,16.68-5.29,25.22-6,3.76-.32,7.52-.35,11.27-.13Zm-17.33,22.43c4.6-5.73,9.6-10.95,15.03-14.7,2.7-1.85,5.51-3.32,8.35-4.14,2.82-.83,5.68-.96,8.32-.32,5.41,1.27,9.7,5.88,12.7,11.74,3.02,5.89,4.96,12.89,6.28,20.15.43,2.37.78,4.78,1.08,7.21-10.52-1.34-20.89-3.64-31.06-6.5-8.31-2.35-16.52-5.14-24.51-8.43,1.24-1.71,2.5-3.38,3.8-5.01Zm20.45,15.56c10.33,2.53,20.83,4.44,31.44,5.45.57,4.71.94,9.5,1.15,14.34.06,1.51.1,3.03.13,4.56-11.92-4.2-24-7.99-36.17-11.42-10.24-2.85-20.56-5.47-30.97-7.79,2.66-4.54,5.44-8.94,8.37-13.15,8.52,3.24,17.22,5.84,26.04,8.02Zm27.44,95.12c8.97,1.38,17.97,2.53,27.01,3.39,10.37,1,20.79,1.58,31.22,1.44-.28,9.53-1.17,19.07-2.62,28.55-7.42-3.67-14.97-7.06-22.59-10.27-11.47-4.85-23.1-9.31-34.83-13.45.64-3.21,1.24-6.43,1.82-9.66Zm42.67-55.89c-11.7-5.26-23.63-9.99-35.71-14.3-.02-6.51-.31-12.97-.93-19.31.79.07,1.6.15,2.41.21,6.07.45,12.18.55,18.28-.01,2.91-.28,5.81-.73,8.66-1.6,6.85,10.87,12.11,23.08,15.78,35.89.35,1.16.63,2.33.94,3.5-3.12-1.51-6.27-2.96-9.43-4.38Zm-35.87-64.84c7.21,4.69,13.75,10.59,19.49,17.35,3.17,3.74,6.09,7.75,8.76,11.96-2.87.86-5.81,1.28-8.73,1.53-6.08.49-12.14.2-18.14-.36-.75-.07-1.5-.17-2.25-.26-.28-2.69-.61-5.37-1.04-8.01-1.23-7.48-3.08-14.77-6.18-21.09-1.29-2.63-2.83-5.05-4.63-7.13,2.18.75,4.34,1.53,6.47,2.36,2.13,1.13,4.21,2.34,6.24,3.66Zm-89.78,1.56c1.54,1.35,3.14,2.57,4.79,3.7,5.17,3.52,10.65,6.31,16.21,8.83,1.73.76,3.47,1.49,5.21,2.19-2.25,3.17-4.42,6.43-6.51,9.76-.8,1.28-1.58,2.57-2.36,3.86-13.84-2.99-27.81-5.45-41.92-7.14-.79-.09-1.59-.16-2.39-.25,8.28-8.08,17.31-15.24,26.97-20.95Zm-25.39,26.28c13.59,1.29,27.13,3.22,40.6,5.67-2.52,4.34-4.93,8.77-7.22,13.29-7.41,14.6-13.87,29.84-19.54,45.42-9.41-3.51-18.7-7.3-27.83-11.42-7.65-3.43-15.21-7.11-22.51-11.16.04-.08.08-.16.12-.23,8.34-15.37,18.39-29.72,30.12-42.12,2.09.17,4.18.34,6.26.54Zm-16.02,58.66c9.26,3.88,18.64,7.39,28.1,10.62-.72,2.07-1.43,4.15-2.14,6.23-12.71-2.66-25.5-4.96-38.39-6.76-6.5-.86-13.02-1.62-19.57-2.21,2.56-6.46,5.39-12.8,8.51-18.98,7.67,4.08,15.53,7.71,23.48,11.11Zm11.77,88.59c14.28,4.47,28.69,8.48,43.18,12.12,16.16,4.03,32.43,7.55,48.81,10.5-1.05,3.14-2.13,6.25-3.26,9.37-15.49-5.88-31.28-11-47.24-15.49-14.08-3.91-28.29-7.39-42.65-10.25.38-2.08.75-4.17,1.15-6.24Zm114.69,42.7c-8.24-3.71-16.6-7.14-25.06-10.37,1.13-3.17,2.23-6.35,3.3-9.55,12.27,2.2,24.6,4.07,36.98,5.53,8.18.97,16.39,1.73,24.61,2.22-3.48,9.04-7.5,17.85-12.05,26.34-8.96-5.28-18.29-9.91-27.77-14.17Zm14.51-15.89c-11.93-1.66-23.79-3.76-35.58-6.18,3.43-10.49,6.56-21.09,9.37-31.77,2.83-10.62,5.33-21.32,7.5-32.07,11.45,3.72,22.78,7.76,33.98,12.19,7.99,3.24,15.92,6.65,23.7,10.37-1.32,8.53-3.06,16.99-5.25,25.34-2.23,8.4-4.93,16.69-8.01,24.8-8.6-.6-17.18-1.56-25.71-2.68Zm34.68-21.87c2.2-8.28,3.96-16.66,5.3-25.12,5.07,2.46,10.08,5.06,14.99,7.85,6.33,3.65,12.55,7.58,18.2,12.26,2.8,2.35,5.5,4.89,7.69,7.84,1.09,1.49,2.05,3.08,2.67,4.81.63,1.73.86,3.65.39,5.46-.47,1.81-1.63,3.36-3.02,4.55-1.4,1.21-3.02,2.11-4.71,2.87-3.36,1.48-6.96,2.36-10.56,3.01-7.23,1.27-14.56,1.63-21.88,1.69-5.65,0-11.29-.22-16.92-.59,3.03-8.06,5.68-16.29,7.86-24.64Zm49.98,8.32c-.62-1.76-1.58-3.36-2.67-4.85-2.2-2.98-4.89-5.54-7.7-7.91-5.67-4.73-11.89-8.7-18.23-12.41-5.25-3.04-10.61-5.87-16.04-8.57,1.52-9.65,2.45-19.37,2.76-29.07,2.22-.04,4.44-.1,6.66-.22,6.5-.36,13.02-1.04,19.34-2.66,3.15-.83,6.28-1.9,9.12-3.52,2.8-1.6,5.44-3.99,6.28-7.24.18-.65.26-1.32.28-1.98,6.5,25.36,7.08,52.58.54,79.66-.09-.42-.22-.83-.36-1.23Zm-2.35-85.85c-1.66-2.82-3.85-5.29-6.18-7.57-4.7-4.53-10.04-8.34-15.51-11.87-7.49-4.78-15.3-9.03-23.27-12.95-.37-1.5-.74-3-1.14-4.49-3.57-12.91-8.62-25.35-15.35-36.52.95-.38,1.88-.84,2.75-1.43,1.34-.89,2.62-2.2,3.07-3.92.27-1,.2-2.02-.02-2.98,26.6,21.08,46.05,49.88,55.84,82.08-.06-.12-.13-.24-.2-.36Zm-315.36,95.29c-1.43-2.44-2.09-4.94-1.53-6.91.49-1.96,2.3-3.83,4.74-5.23,2.43-1.41,5.3-2.42,8.25-3.2,5.94-1.54,12.25-2.22,18.55-2.58,2.38-.13,4.75-.2,7.13-.22,0,0,0,.01,0,.03-.21,16.47,1.43,32.89,5.1,48.63-7.49-3.73-14.81-7.75-21.78-12.23-5.31-3.43-10.45-7.13-14.86-11.4-2.18-2.14-4.18-4.45-5.6-6.86Zm42.66-18.2c8.51.06,17.05.58,25.55,1.39,9.81.93,19.59,2.18,29.33,3.73-2.73,16.25-4.61,32.56-5.38,48.81-.24,5.16-.32,10.3-.27,15.42-12.77-4.48-25.36-9.46-37.66-14.99-2.05-.93-4.09-1.87-6.12-2.83-4.1-16.59-5.79-34.03-5.44-51.52Zm83.45,133.96c2.6-.92,5.14-2.27,7.57-3.91,5.81-3.99,11.01-9.4,15.79-15.3,5.56-6.93,10.54-14.55,15.14-22.49,12.68,2.23,25.45,4.01,38.26,5.22,3.28.31,6.54.58,9.82.8-.49.5-.98,1.01-1.48,1.5-13.38,13.11-28.86,23.66-45.53,29.78-8.32,3.06-16.92,4.95-25.51,5.47-2.37.16-4.74.17-7.1.1-2.32-.34-4.64-.73-6.96-1.17Zm40.73-2.33c16.94-6.57,32.37-17.64,45.71-30.98.74-.74,1.43-1.5,2.16-2.25,8.99.54,18.02.69,27.01.23,6.47-.37,12.96-1.06,19.26-2.68,2.95-.78,5.89-1.8,8.59-3.28-32.16,29.71-75.54,46.21-120.65,44,6.07-1.08,12.06-2.79,17.91-5.05Zm107.62-55.85c-1.65-2.82-3.83-5.29-6.14-7.56-4.68-4.52-9.98-8.33-15.42-11.84-1.85-1.17-3.73-2.32-5.62-3.45,4.62-8.65,8.68-17.64,12.2-26.85,6.1.33,12.18.51,18.29.47,7.35-.08,14.73-.47,21.98-1.77,3.62-.68,7.23-1.57,10.6-3.08,1.67-.76,3.31-1.67,4.71-2.89.31-.28.61-.57.9-.88-7.84,26.66-21.88,49.93-40.12,68.65.21-.45.39-.91.51-1.4.87-3.24-.24-6.63-1.88-9.39Zm-259.5-20.62c-4.11-7.13-7.68-14.59-10.68-22.24,4.09,3.49,8.44,6.51,12.87,9.33,8.73,5.45,17.83,10.08,27.09,14.29.1.35.18.7.28,1.05,5.31,18.34,13.78,35.58,25.64,49.53,3.67,4.32,7.68,8.31,11.98,11.87-16.57-8.39-31.33-19.37-43.88-32.32-8.96-9.56-16.79-20.16-23.3-31.51Z"/>
  <path class="cls-1" d="m442.71,122.29c-89.84-23.73-182.36,30.45-206.22,120.79-23.86,90.34,29.82,183.15,119.66,206.88,89.85,23.74,182.36-30.45,206.22-120.79,23.87-90.34-29.81-183.15-119.66-206.88Z"/>
  <rect class="cls-6" x="188.68" y="245.84" width="420.77" height="83.82"/>
  <path class="cls-5" d="m546.32,299.22h0c0-1.15.92-2.11,2.09-2.11s2.09.95,2.09,2.09h0c0,1.15-.92,2.11-2.09,2.11s-2.09-.95-2.09-2.09Zm3.93-.01h0c0-1.03-.79-1.87-1.85-1.87s-1.85.85-1.85,1.87h0c0,1.03.79,1.87,1.85,1.87s1.85-.85,1.85-1.87Zm-2.66-1.1h.96c.47,0,.82.23.82.67,0,.35-.2.56-.49.65l.56.8h-.49l-.5-.73h-.44v.73h-.41v-2.12Zm.92,1.06c.28,0,.43-.14.43-.35,0-.23-.16-.35-.43-.35h-.52v.7h.52Z"/>
  <g>
    <path class="cls-4" d="m246.73,296.85h2.35l-.07,20.62h-2.29v-20.62Z"/>
    <path class="cls-4" d="m259.65,296.85h2.21l13,16.48v-16.48h2.27v20.62h-1.82l-13.34-16.88-.06,16.88h-2.23l-.02-20.62Z"/>
    <path class="cls-4" d="m292.98,299.03h-6.91v-2.16h16.22v2.14h-6.93v18.48h-2.36l-.02-18.47Z"/>
    <path class="cls-4" d="m311.24,296.79h14.92v2.12h-12.56l-.02,7.02,11.27.03-.02,2.11-11.25.02.02,7.2,12.7.05v2.08s-15.06,0-15.06,0v-20.62Z"/>
    <path class="cls-4" d="m335.57,296.85h8.25c3.11,0,5.2.67,6.57,2.11.62.65,1.52,2.35,1.52,3.83h0c0,3.45-1.97,5.59-5.57,6.26l6.33,8.43h-2.88s-6-8-6-8h-5.86l-.03,8h-2.32v-20.62Zm8.1,10.55c4.43.01,5.87-2.02,5.92-4.52h0c-.3-2.04-1.22-3.91-5.82-3.91l-5.88.04v8.35s5.78.04,5.78.04Z"/>
    <path class="cls-4" d="m361.47,296.85h2.22l12.99,16.55v-16.55s2.27,0,2.27,0v20.62s-1.87,0-1.87,0l-13.29-16.88-.02,16.88h-2.28l-.03-20.62Z"/>
    <path class="cls-4" d="m397.01,296.71h2.18l9.4,20.77h-2.5l-2.38-5.42-11.26-.02-2.45,5.44h-2.4l9.41-20.77Zm5.74,13.2l-4.67-10.48-4.72,10.48h9.39Z"/>
    <path class="cls-4" d="m420.03,299l-6.91.02v-2.16h16.22v2.16h-6.93l-.02,18.46h-2.34l-.02-18.48Z"/>
    <path class="cls-4" d="m438.5,296.85h2.33v20.62h-2.33v-20.62Z"/>
    <path class="cls-4" d="m450.54,307.23v-.06c0-5.63,4.29-10.66,10.36-10.67,6.65,0,10.67,4.97,10.67,10.59h0c.23,6.16-5.51,12.22-13.2,10.46-4.23-.97-7.73-5.05-7.82-10.33Zm18.63-.04v-.06c0-5.1-3.83-8.53-8.11-8.49-5.11.05-8.09,4.01-8.1,8.47v.06c.02,4.88,3.26,7.53,5.89,8.25,5.65,1.56,10.53-3.01,10.32-8.23Z"/>
    <path class="cls-4" d="m481.09,296.85h2.19l12.99,16.53v-16.53h2.3v20.62h-1.88l-13.31-16.89-.02,16.89h-2.27v-20.62Z"/>
    <path class="cls-4" d="m516.62,296.71h2.18l9.41,20.77h-2.51l-2.45-5.45-11.19.02-2.47,5.44h-2.37l9.41-20.77Zm5.73,13.18l-4.7-10.47-4.69,10.5,9.39-.03Z"/>
    <path class="cls-4" d="m536.86,296.85h2.33v18.48s11.63.02,11.63.02l-.02,2.12h-13.95v-20.62Z"/>
  </g>
  <g>
    <path class="cls-7" d="m211.73,263.64h-10.04v-6.38h27.35v6.38h-10.04v25.08h-7.26v-25.08Z"/>
    <path class="cls-7" d="m231.72,273.08v-.09c0-8.94,7.4-16.27,17.59-16.27s17.49,7.23,17.49,16.18v.09c0,8.94-7.4,16.27-17.59,16.27s-17.49-7.24-17.49-16.18Zm27.49,0v-.09c0-5.39-4.15-9.89-10-9.89s-9.9,4.4-9.9,9.8v.09c0,5.39,4.15,9.89,10,9.89s9.9-4.4,9.9-9.8Z"/>
    <path class="cls-7" d="m282.45,257.04h6.7l14.15,31.68h-7.59l-3.02-7.06h-13.96l-3.02,7.06h-7.4l14.14-31.68Zm7.64,18.51l-4.38-10.2-4.38,10.2h8.77Z"/>
    <path class="cls-7" d="m305.65,284.13l4.29-4.9c2.97,2.34,6.08,3.82,9.85,3.82,2.97,0,4.76-1.12,4.76-2.97v-.09c0-1.75-1.13-2.65-6.65-4-6.65-1.62-10.94-3.37-10.94-9.62v-.09c0-5.71,4.81-9.48,11.55-9.48,4.81,0,8.91,1.44,12.26,4l-3.77,5.21c-2.92-1.93-5.8-3.1-8.58-3.1s-4.24,1.21-4.24,2.74v.09c0,2.07,1.41,2.74,7.12,4.13,6.7,1.66,10.47,3.95,10.47,9.44v.09c0,6.25-5,9.75-12.12,9.75-5,0-10.04-1.66-14-5.03Z"/>
    <path class="cls-7" d="m345.07,263.64h-10.04v-6.38h27.35v6.38h-10.04v25.08h-7.26v-25.08Z"/>
    <path class="cls-7" d="m367.93,257.26h7.83l8.68,13.3,8.68-13.3h7.83v31.46h-7.21v-20.54l-9.29,13.44h-.19l-9.19-13.3v20.4h-7.12v-31.46Z"/>
    <path class="cls-7" d="m420.17,257.04h6.7l14.14,31.68h-7.59l-3.02-7.06h-13.96l-3.02,7.06h-7.4l14.14-31.68Zm7.64,18.51l-4.38-10.2-4.39,10.2h8.77Z"/>
    <path class="cls-7" d="m443.37,284.13l4.29-4.9c2.97,2.34,6.08,3.82,9.85,3.82,2.97,0,4.76-1.12,4.76-2.97v-.09c0-1.75-1.13-2.65-6.65-4-6.65-1.62-10.94-3.37-10.94-9.62v-.09c0-5.71,4.81-9.48,11.55-9.48,4.81,0,8.91,1.44,12.26,4l-3.77,5.21c-2.92-1.93-5.8-3.1-8.58-3.1s-4.24,1.21-4.24,2.74v.09c0,2.07,1.41,2.74,7.12,4.13,6.7,1.66,10.47,3.95,10.47,9.44v.09c0,6.25-5,9.75-12.12,9.75-5,0-10.04-1.66-14-5.03Z"/>
    <path class="cls-7" d="m482.79,263.64h-10.04v-6.38h27.35v6.38h-10.04v25.08h-7.26v-25.08Z"/>
    <path class="cls-7" d="m505.66,257.26h24.89v6.16h-17.68v6.38h15.56v6.16h-15.56v6.61h17.92v6.16h-25.13v-31.46Z"/>
    <path class="cls-7" d="m537.25,257.26h15.09c4.2,0,7.45,1.12,9.62,3.19,1.84,1.75,2.83,4.22,2.83,7.19v.09c0,5.08-2.87,8.27-7.07,9.75l8.06,11.23h-8.49l-7.07-10.07h-5.71v10.07h-7.26v-31.46Zm14.62,15.28c3.54,0,5.56-1.8,5.56-4.45v-.09c0-2.97-2.17-4.49-5.71-4.49h-7.21v9.03h7.36Z"/>
    <path class="cls-7" d="m569.07,284.13l4.29-4.9c2.97,2.34,6.08,3.82,9.85,3.82,2.97,0,4.76-1.12,4.76-2.97v-.09c0-1.75-1.13-2.65-6.65-4-6.65-1.62-10.94-3.37-10.94-9.62v-.09c0-5.71,4.81-9.48,11.55-9.48,4.81,0,8.91,1.44,12.26,4l-3.77,5.21c-2.92-1.93-5.8-3.1-8.58-3.1s-4.24,1.21-4.24,2.74v.09c0,2.07,1.41,2.74,7.12,4.13,6.7,1.66,10.47,3.95,10.47,9.44v.09c0,6.25-5,9.75-12.12,9.75-5,0-10.04-1.66-14-5.03Z"/>
  </g>
  <g>
    <path class="cls-4" d="m104.98,493.27h8.2l4.88,16.2,5.4-16.28h6.68l5.4,16.28,4.88-16.2h8.04l-9.36,28.2h-6.76l-5.6-16.12-5.64,16.12h-6.76l-9.36-28.2Z"/>
    <path class="cls-4" d="m150.74,493.27h7.76v10.48h9.96v-10.48h7.76v28h-7.76v-10.64h-9.96v10.64h-7.76v-28Z"/>
    <path class="cls-4" d="m181.18,493.27h22.52v6.56h-14.84v4.28h13.44v6.12h-13.44v4.44h15.04v6.6h-22.72v-28Z"/>
    <path class="cls-4" d="m207.9,493.27h13.24c4.28,0,7.24,1.12,9.12,3,1.64,1.64,2.48,3.76,2.48,6.52v.08c0,4.32-2.28,7.16-5.76,8.64l6.68,9.76h-8.92l-5.64-8.48h-3.44v8.48h-7.76v-28Zm12.92,13.44c2.6,0,4.16-1.28,4.16-3.32v-.08c0-2.24-1.64-3.36-4.2-3.36h-5.12v6.76h5.16Z"/>
    <path class="cls-4" d="m236.66,493.27h22.52v6.56h-14.84v4.28h13.44v6.12h-13.44v4.44h15.04v6.6h-22.72v-28Z"/>
    <path class="cls-4" d="m274.46,493.27h7.76v21.2h13.56v6.8h-21.32v-28Z"/>
    <path class="cls-4" d="m299.14,493.27h22.52v6.56h-14.84v4.28h13.44v6.12h-13.44v4.44h15.04v6.6h-22.72v-28Z"/>
    <path class="cls-4" d="m335.54,493.07h7.48l11.92,28.2h-8.32l-2-5.04h-10.84l-2,5.04h-8.12l11.88-28.2Zm6.8,17.12l-3.12-7.92-3.16,7.92h6.28Z"/>
    <path class="cls-4" d="m357.66,493.27h10.84c9.96,0,15.76,5.76,15.76,13.84v.08c0,8.08-5.88,14.08-15.92,14.08h-10.68v-28Zm7.76,6.84v14.28h3.16c4.68,0,7.76-2.56,7.76-7.08v-.08c0-4.48-3.08-7.12-7.76-7.12h-3.16Z"/>
    <path class="cls-4" d="m388.3,493.27h22.52v6.56h-14.84v4.28h13.44v6.12h-13.44v4.44h15.04v6.6h-22.72v-28Z"/>
    <path class="cls-4" d="m415.02,493.27h13.24c4.28,0,7.24,1.12,9.12,3,1.64,1.64,2.48,3.76,2.48,6.52v.08c0,4.32-2.28,7.16-5.76,8.64l6.68,9.76h-8.92l-5.64-8.48h-3.44v8.48h-7.76v-28Zm12.92,13.44c2.6,0,4.16-1.28,4.16-3.32v-.08c0-2.24-1.64-3.36-4.2-3.36h-5.12v6.76h5.16Z"/>
    <path class="cls-4" d="m441.66,517.11l4.32-5.16c2.8,2.2,5.84,3.36,9.08,3.36,2.12,0,3.24-.72,3.24-1.92v-.08c0-1.2-.92-1.8-4.76-2.72-5.96-1.36-10.56-3.04-10.56-8.76v-.08c0-5.2,4.12-8.96,10.84-8.96,4.76,0,8.48,1.28,11.52,3.72l-3.88,5.48c-2.56-1.84-5.36-2.76-7.84-2.76-1.88,0-2.8.76-2.8,1.8v.08c0,1.28.96,1.84,4.88,2.72,6.4,1.4,10.4,3.48,10.4,8.72v.08c0,5.72-4.52,9.12-11.32,9.12-4.96,0-9.64-1.56-13.12-4.64Z"/>
    <path class="cls-4" d="m488.21,493.07h7.48l11.92,28.2h-8.32l-2-5.04h-10.84l-2,5.04h-8.12l11.88-28.2Zm6.8,17.12l-3.12-7.92-3.16,7.92h6.28Z"/>
    <path class="cls-4" d="m510.34,493.27h13.24c4.28,0,7.24,1.12,9.12,3,1.64,1.64,2.48,3.76,2.48,6.52v.08c0,4.32-2.28,7.16-5.76,8.64l6.68,9.76h-8.92l-5.64-8.48h-3.44v8.48h-7.76v-28Zm12.92,13.44c2.6,0,4.16-1.28,4.16-3.32v-.08c0-2.24-1.64-3.36-4.2-3.36h-5.12v6.76h5.16Z"/>
    <path class="cls-4" d="m539.1,493.27h22.52v6.56h-14.84v4.28h13.44v6.12h-13.44v4.44h15.04v6.6h-22.72v-28Z"/>
    <path class="cls-4" d="m576.9,493.27h8.2l6.68,10.84,6.68-10.84h8.2v28h-7.72v-16.08l-7.16,10.96h-.16l-7.12-10.92v16.04h-7.6v-28Z"/>
    <path class="cls-4" d="m621.29,493.07h7.48l11.92,28.2h-8.32l-2-5.04h-10.84l-2,5.04h-8.12l11.88-28.2Zm6.8,17.12l-3.12-7.92-3.16,7.92h6.28Z"/>
    <path class="cls-4" d="m642.62,493.27h10.84c9.96,0,15.76,5.76,15.76,13.84v.08c0,8.08-5.88,14.08-15.92,14.08h-10.68v-28Zm7.76,6.84v14.28h3.16c4.68,0,7.76-2.56,7.76-7.08v-.08c0-4.48-3.08-7.12-7.76-7.12h-3.16Z"/>
    <path class="cls-4" d="m673.25,493.27h22.52v6.56h-14.84v4.28h13.44v6.12h-13.44v4.44h15.04v6.6h-22.72v-28Z"/>
  </g>
</svg>